<svg width="21" height="20" viewBox="0 0 21 20" fill="none" xmlns="http://www.w3.org/2000/svg">
<path d="M20.5 3.75C20.5 5.71094 18.1914 8.63672 17.1953 9.80469C17.0469 9.97656 16.8281 10.043 16.6289 10H13C12.3086 10 11.75 10.5586 11.75 11.25C11.75 11.9414 12.3086 12.5 13 12.5H16.75C18.8203 12.5 20.5 14.1797 20.5 16.25C20.5 18.3203 18.8203 20 16.75 20H5.95312C6.29297 19.6133 6.70703 19.1172 7.125 18.5625C7.37109 18.2344 7.625 17.875 7.86719 17.5H16.75C17.4414 17.5 18 16.9414 18 16.25C18 15.5586 17.4414 15 16.75 15H13C10.9297 15 9.25 13.3203 9.25 11.25C9.25 9.17969 10.9297 7.5 13 7.5H14.5547C13.7344 6.26953 13 4.85547 13 3.75C13 1.67969 14.6797 0 16.75 0C18.8203 0 20.5 1.67969 20.5 3.75ZM5.07422 19.1055C4.92578 19.2734 4.79297 19.4219 4.67969 19.5469L4.60938 19.625L4.60156 19.6172C4.36719 19.7969 4.03125 19.7734 3.82031 19.5469C2.83594 18.4766 0.5 15.7227 0.5 13.75C0.5 11.6797 2.17969 10 4.25 10C6.32031 10 8 11.6797 8 13.75C8 14.9219 7.17578 16.3672 6.30078 17.5742C5.88281 18.1484 5.45312 18.668 5.09766 19.0781L5.07422 19.1055ZM5.5 13.75C5.5 13.4185 5.3683 13.1005 5.13388 12.8661C4.89946 12.6317 4.58152 12.5 4.25 12.5C3.91848 12.5 3.60054 12.6317 3.36612 12.8661C3.1317 13.1005 3 13.4185 3 13.75C3 14.0815 3.1317 14.3995 3.36612 14.6339C3.60054 14.8683 3.91848 15 4.25 15C4.58152 15 4.89946 14.8683 5.13388 14.6339C5.3683 14.3995 5.5 14.0815 5.5 13.75ZM16.75 5C17.0815 5 17.3995 4.8683 17.6339 4.63388C17.8683 4.39946 18 4.08152 18 3.75C18 3.41848 17.8683 3.10054 17.6339 2.86612C17.3995 2.6317 17.0815 2.5 16.75 2.5C16.4185 2.5 16.1005 2.6317 15.8661 2.86612C15.6317 3.10054 15.5 3.41848 15.5 3.75C15.5 4.08152 15.6317 4.39946 15.8661 4.63388C16.1005 4.8683 16.4185 5 16.75 5Z" fill="#5D5D5D"/>
</svg>
