<svg width="21" height="19" viewBox="0 0 21 19" fill="none" xmlns="http://www.w3.org/2000/svg">
<path d="M7.68726 1.875H13.3123C13.4841 1.875 13.6248 2.01562 13.6248 2.1875V3.75H7.37476V2.1875C7.37476 2.01562 7.51538 1.875 7.68726 1.875ZM5.49976 2.1875V3.75H2.99976C1.62085 3.75 0.499756 4.87109 0.499756 6.25V10H7.99976H12.9998H20.4998V6.25C20.4998 4.87109 19.3787 3.75 17.9998 3.75H15.4998V2.1875C15.4998 0.980469 14.5193 0 13.3123 0H7.68726C6.48022 0 5.49976 0.980469 5.49976 2.1875ZM20.4998 11.25H12.9998V12.5C12.9998 13.1914 12.4412 13.75 11.7498 13.75H9.24976C8.55835 13.75 7.99976 13.1914 7.99976 12.5V11.25H0.499756V16.25C0.499756 17.6289 1.62085 18.75 2.99976 18.75H17.9998C19.3787 18.75 20.4998 17.6289 20.4998 16.25V11.25Z" fill="#5D5D5D"/>
</svg>
